<?xml version="1.0" encoding="utf-8"?>
<!-- Generator: Adobe Illustrator 19.2.1, SVG Export Plug-In . SVG Version: 6.00 Build 0)  -->
<svg version="1.1" id="Layer_4" xmlns="http://www.w3.org/2000/svg" xmlns:xlink="http://www.w3.org/1999/xlink" x="0px" y="0px"
	 viewBox="0 0 2800 2000" style="enable-background:new 0 0 2800 2000;" xml:space="preserve">
<style type="text/css">
	.st0{fill:#F5F9FC;}
	.st1{fill:url(#SVGID_1_);}
	.st2{fill:url(#SVGID_2_);}
	.st3{fill:url(#SVGID_3_);}
	.st4{fill:#8DD3EC;}
	.st5{fill:url(#SVGID_4_);}
	.st6{fill:url(#SVGID_5_);}
	.st7{fill:url(#SVGID_6_);}
	.st8{fill:#ECF2F7;}
	.st9{fill:#494A70;}
	.st10{fill:#FFFFFF;}
	.st11{fill:#F79B74;}
	.st12{fill:url(#SVGID_7_);}
	.st13{fill:url(#SVGID_8_);}
	.st14{fill:#C43B37;}
	.st15{fill:#73ACD5;}
	.st16{fill:#F15F56;}
	.st17{fill:#F8A689;}
	.st18{fill:#FBC8B6;}
	.st19{fill:url(#SVGID_9_);}
	.st20{fill:url(#SVGID_10_);}
	.st21{fill:#E04A46;}
	.st22{fill:#4E8EB5;}
	.st23{fill:#8ED5E0;}
	.st24{fill:#373F84;}
	.st25{fill:url(#SVGID_11_);}
	.st26{fill:#F9CECD;}
</style>
<rect class="st0" width="2800" height="2000"/>
<linearGradient id="SVGID_1_" gradientUnits="userSpaceOnUse" x1="1400.0012" y1="335.6201" x2="1400.0012" y2="1438.1018">
	<stop  offset="8.489695e-003" style="stop-color:#DAEFFA"/>
	<stop  offset="0.314" style="stop-color:#D6ECF9"/>
	<stop  offset="0.5071" style="stop-color:#CBE5F4"/>
	<stop  offset="0.6689" style="stop-color:#BADBEE"/>
	<stop  offset="0.8135" style="stop-color:#A3CFE7"/>
	<stop  offset="0.9454" style="stop-color:#85C1DE"/>
	<stop  offset="0.9951" style="stop-color:#77BBDB"/>
</linearGradient>
<path class="st1" d="M2558.2,1434.9c-29.6,62.8-85.7,107.5-135.7,155.2c-20.8,19.8-41.2,41.2-58.3,64.7H391.9
	c-2.2-1.3-4.3-2.5-6.5-3.8c-25.5-15.2-49.6-32.4-71.4-52.2c-63.9-57.9-107.3-147.1-87.8-231.7c26-113,142.1-149.3,190.9-245
	c0.7-1.4,1.4-2.7,2-4.1c41.3-85.5,18.8-188.5-11.9-278.9c-31.2-91.8-70.7-186.3-57.1-282.4c12.1-85.8,69.4-163.7,147.1-200.2
	c99.8-46.9,201.7-10.1,297.4,26.8c106.9,41.2,221.5,101.6,339.3,74.8c83.2-18.9,160.5-59,241.2-86.5c86.7-29.7,175.6-54.2,266.7-65
	c136.8-16.2,281.1,0.7,399.5,71.7c118.5,71.1,206.1,202.3,203.5,341.6c-1.5,78.2-29.3,160.6-9.8,233.6c2.8,10.5,6.6,20.8,11.5,30.8
	c15.4,31.1,39.1,54,66.9,73.2c52.2,35.9,118.8,58.6,171.3,97.1c8.8,6.4,17.1,13.3,25,20.7
	C2577.7,1239.7,2598.3,1349.9,2558.2,1434.9z"/>
<linearGradient id="SVGID_2_" gradientUnits="userSpaceOnUse" x1="1399.9973" y1="1165.8372" x2="1399.9973" y2="1649.6971">
	<stop  offset="0" style="stop-color:#F1F5FC"/>
	<stop  offset="0.2994" style="stop-color:#E9F1FA"/>
	<stop  offset="0.7505" style="stop-color:#D3E4F6"/>
	<stop  offset="0.9992" style="stop-color:#C5DDF3"/>
</linearGradient>
<path class="st2" d="M2092.6,1167.4c-240.1-0.3-441.8,178.5-680.9,198c-243.4,19.8-464.8-127.6-706.5-160
	c-122.7-16.5-250-1.8-364.8,40.7c-20.2,7.5-40,15.7-59.8,24c-24.8,26.8-45.3,57.2-54.5,97.2c-19.5,84.6,23.9,173.8,87.9,231.7
	c23.7,21.5,50,39.9,77.9,56h1972.3c17.1-23.6,37.5-44.9,58.3-64.7c50-47.7,106.1-92.5,135.7-155.2c20.4-43.2,25.1-92.8,15.9-139.7
	c-63-21.2-126-42.4-188.9-63.6C2290.6,1199.8,2193.5,1167.5,2092.6,1167.4z"/>
<g>
	<g>
		<linearGradient id="SVGID_3_" gradientUnits="userSpaceOnUse" x1="242.1271" y1="1355.4747" x2="701.4495" y2="1438.8766">
			<stop  offset="0" style="stop-color:#DAEFFA"/>
			<stop  offset="0.316" style="stop-color:#D7EEFA"/>
			<stop  offset="0.5495" style="stop-color:#CDEAF9"/>
			<stop  offset="0.7564" style="stop-color:#BCE4F8"/>
			<stop  offset="0.9467" style="stop-color:#A4DBF7"/>
			<stop  offset="0.9979" style="stop-color:#9BD8F6"/>
		</linearGradient>
		<path class="st3" d="M634.5,1418.2v232.9H385.4c-25.5-15.2-49.6-32.4-71.4-52.2c-63.9-57.9-107.3-147.1-87.8-231.7
			c26-113,142.1-149.3,190.9-245c0.7-1.4,1.4-2.7,2-4.1C544.3,1160.3,634.5,1278.7,634.5,1418.2z"/>
		<path class="st4" d="M634.5,1424.7v-6.5c0,0,0-0.1,0-0.1H531V1331h91.3c0-0.1-0.1-0.2-0.1-0.3c-0.5-1.8-1-3.5-1.6-5.2
			c-0.1-0.4-0.2-0.7-0.3-1.1H531v-17.2c0-24.4-4.1-47.9-11.5-69.9h58.3c-1.6-2.2-3.1-4.5-4.8-6.6h-55.9
			c-12.8-33.8-33.7-63.7-60.4-87.1h18.9c-0.1-0.1-0.2-0.1-0.3-0.2c-3.9-2.2-7.9-4.4-11.9-6.5h-14.7c-8-6.3-16.4-12.1-25.2-17.3
			c-1.5-0.5-2.9-1-4.4-1.5c-0.6,1.4-1.3,2.7-2,4.1c-0.2,0.4-0.4,0.7-0.6,1.1c7.4,4.1,14.5,8.7,21.2,13.6h-29
			c-1.4,2.2-2.8,4.5-4.3,6.6h41.9c28.1,22.9,50.2,52.8,63.6,87.1H389.2v-65.2c0-0.5,0-0.9,0-1.4c-2.2,2.6-4.4,5.2-6.6,7.7v58.9
			h-61.2c-2.4,2.2-4.9,4.4-7.3,6.6h68.5v87.1H244.5v-5.3c-2.4,4.3-4.6,8.8-6.6,13.3v85.7h-16.2c0.1,2.2,0.2,4.4,0.4,6.6h15.8v66
			c2,5.1,4.3,10.2,6.6,15.3v-81.2h138.1v87.1H247.3c1.1,2.2,2.3,4.4,3.5,6.6h131.8v87.1h-61.1c2.6,2.3,5.3,4.5,8,6.6h53.1v37.2
			c0.9,0.6,1.8,1.1,2.8,1.7h3.9v-38.9h135.1v38.9h6.6v-38.9h103.5v-6.6H531v-87.1h103.5v-6.6H531v-87.1H634.5z M382.6,1418.1H244.5
			V1331h138.1V1418.1z M524.4,1605.5H389.2v-87.1h135.1V1605.5z M524.4,1511.8H389.2v-87.1h135.1V1511.8z M524.4,1418.1H389.2V1331
			h135.1V1418.1z M524.4,1324.3H389.2v-87.1h123.2c7.7,21.9,11.9,45.4,11.9,69.9V1324.3z"/>
	</g>
	<linearGradient id="SVGID_4_" gradientUnits="userSpaceOnUse" x1="492.3163" y1="1303.9526" x2="492.3163" y2="1655.0195">
		<stop  offset="0" style="stop-color:#DAEFFA"/>
		<stop  offset="0.3941" style="stop-color:#D7EEFA"/>
		<stop  offset="0.6039" style="stop-color:#CFEBF9"/>
		<stop  offset="0.7703" style="stop-color:#C1E5F9"/>
		<stop  offset="0.9131" style="stop-color:#ACDEF7"/>
		<stop  offset="0.9979" style="stop-color:#9BD8F6"/>
	</linearGradient>
	<path class="st5" d="M568.1,1651.1H686v-345H433.4c-74.4,0-134.7,60.3-134.7,134.7v143.1c5,5.2,10.1,10.2,15.3,14.9
		c21.8,19.8,46,37,71.4,52.2h48H568.1z"/>
	<path class="st4" d="M590.3,1306.1h-20.9c-31.3,13-57,36.7-72.7,66.5H383.6c18.1-32.5,49.1-57,85.9-66.5h-20.9
		c-31.3,13-57,36.7-72.6,66.5h-58.8c-1.3,2.2-2.5,4.4-3.7,6.6h59.2c-8.4,18.3-13.1,38.6-13.1,60v29.8h-61v6.6h61v89.8h-61v6.6h61
		v62.6c2.2,1.5,4.4,3,6.6,4.5V1572h114.1v79h6.6v-79H686v-6.6H487.1v-89.8H686v-6.6H487.1v-29.8c0-21.5,5-41.8,13.8-60H686v-6.6
		H504.3C522.5,1340,553.4,1315.5,590.3,1306.1z M480.4,1565.4H366.3v-89.8h114.1V1565.4z M480.4,1439.1v29.8H366.3v-29.8
		c0-21.5,5-41.8,13.8-60h113.4C485.1,1397.4,480.4,1417.7,480.4,1439.1z"/>
	
		<linearGradient id="SVGID_5_" gradientUnits="userSpaceOnUse" x1="2726.3687" y1="1353.4078" x2="2948.968" y2="1679.0007" gradientTransform="matrix(-1 0 0 1 3529.7505 0)">
		<stop  offset="0" style="stop-color:#EEF6FB"/>
		<stop  offset="0.5116" style="stop-color:#EAF3F8"/>
		<stop  offset="0.9979" style="stop-color:#DFEBF1"/>
	</linearGradient>
	<path class="st6" d="M686,1306.1L686,1306.1c74.4,0,134.7,60.3,134.7,134.7v210.3H551.3v-210.3
		C551.3,1366.4,611.6,1306.1,686,1306.1z"/>
	
		<linearGradient id="SVGID_6_" gradientUnits="userSpaceOnUse" x1="2736.4404" y1="1625.2902" x2="2963.6582" y2="1419.751" gradientTransform="matrix(-1 0 0 1 3529.7505 0)">
		<stop  offset="0" style="stop-color:#CDEBFB"/>
		<stop  offset="0.2244" style="stop-color:#C9E8F9"/>
		<stop  offset="0.4631" style="stop-color:#BBE1F6"/>
		<stop  offset="0.7084" style="stop-color:#A5D7F1"/>
		<stop  offset="0.9568" style="stop-color:#85C9EB"/>
		<stop  offset="0.9951" style="stop-color:#7FC7EA"/>
	</linearGradient>
	<path class="st7" d="M779.2,1654.4v-211c0-51.4-41.8-93.2-93.2-93.2c-51.4,0-93.2,41.8-93.2,93.2v211H779.2z"/>
</g>
<path class="st8" d="M978.4,1013.4h-31.2c-10.3-29.8-36.2-52.4-68.1-57.7c-4.8-0.8-9.6-1.2-14.6-1.2c-5.4,0-10.7,0.5-15.8,1.4
	c0-0.1,0-0.1,0-0.2c-6.9-41.3-42.9-72.8-86.2-72.8c-48.3,0-87.5,39.2-87.5,87.5c0,2,0.1,4,0.2,6c0.2,2.7,0.5,5.4,0.9,8.1
	c-6.6-4.5-14.4-7.4-22.8-8.1c-1.3-0.1-2.7-0.2-4-0.2c-22.7,0-41.7,16-46.3,37.3H498c-7.9,0-14.3,6.4-14.3,14.3
	c0,7.9,6.4,14.3,14.3,14.3h480.4c7.9,0,14.3-6.4,14.3-14.3C992.7,1019.8,986.3,1013.4,978.4,1013.4z"/>
<g>
	<path class="st9" d="M1345.5,1138.2h-23.4v-49.8c0-135.8-110.5-246.3-246.3-246.3c-135.8,0-246.3,110.5-246.3,246.3v49.8H806v-49.8
		c0-148.7,121-269.7,269.7-269.7s269.7,121,269.7,269.7V1138.2z"/>
	
		<ellipse transform="matrix(0.7624 -0.6471 0.6471 0.7624 -555.8637 1178.0796)" class="st9" cx="1326.5" cy="1346.1" rx="44.5" ry="133.7"/>
	
		<ellipse transform="matrix(0.5191 -0.8547 0.8547 0.5191 -757.4485 1345.8524)" class="st9" cx="817.3" cy="1346.1" rx="133.7" ry="44.5"/>
	<path class="st9" d="M1075.8,1536.6L1075.8,1536.6c-125.3,0-226.8-101.6-226.8-226.8v-211c0-125.3,101.6-226.8,226.8-226.8h0
		c125.3,0,226.8,101.6,226.8,226.8v211C1302.6,1435.1,1201,1536.6,1075.8,1536.6z"/>
	<path class="st9" d="M1075.8,1631.4L1075.8,1631.4c-177.1,0-306.7-85.7-263-257.3l52.6-206.5h420.8l52.6,206.5
		C1382.5,1545.7,1252.8,1631.4,1075.8,1631.4z"/>
	<path class="st10" d="M1194.3,1258.6H961.4c-35.9,0-65-29.1-65-65v0c0-35.9,29.1-65,65-65h232.8c35.9,0,65,29.1,65,65v0
		C1259.2,1229.5,1230.1,1258.6,1194.3,1258.6z"/>
	<g>
		<circle class="st10" cx="989.4" cy="1111.7" r="103.1"/>
		<circle class="st10" cx="1162.2" cy="1111.7" r="103.1"/>
	</g>
	<path class="st11" d="M1104.9,1161.6c0,22.1-13.1,40.1-29.2,40.1c-16.1,0-29.2-17.9-29.2-40.1c0-22.1,13.1-32.9,29.2-32.9
		C1091.9,1128.7,1104.9,1139.5,1104.9,1161.6z"/>
	<linearGradient id="SVGID_7_" gradientUnits="userSpaceOnUse" x1="1170.6814" y1="1587.0426" x2="1170.6814" y2="1649.6218">
		<stop  offset="0.3325" style="stop-color:#F79B74"/>
		<stop  offset="0.5" style="stop-color:#EE946F"/>
		<stop  offset="0.7188" style="stop-color:#DC8662"/>
		<stop  offset="0.965" style="stop-color:#C3714F"/>
		<stop  offset="0.9954" style="stop-color:#C06F4C"/>
	</linearGradient>
	<path class="st12" d="M1259.2,1625.8c0,21.3-39.6,23-88.5,23c-48.9,0-88.5-1.7-88.5-23c0-21.3,39.6-38.6,88.5-38.6
		C1219.6,1587.2,1259.2,1604.5,1259.2,1625.8z"/>
	<linearGradient id="SVGID_8_" gradientUnits="userSpaceOnUse" x1="980.075" y1="1584.9639" x2="980.075" y2="1649.6149">
		<stop  offset="0.3325" style="stop-color:#F79B74"/>
		<stop  offset="0.5" style="stop-color:#EE946F"/>
		<stop  offset="0.7188" style="stop-color:#DC8662"/>
		<stop  offset="0.965" style="stop-color:#C3714F"/>
		<stop  offset="0.9954" style="stop-color:#C06F4C"/>
	</linearGradient>
	<path class="st13" d="M1068.6,1625.8c0,21.3-39.6,23-88.5,23c-48.9,0-88.5-1.7-88.5-23c0-21.3,39.6-38.6,88.5-38.6
		C1029,1587.2,1068.6,1604.5,1068.6,1625.8z"/>
	<path class="st10" d="M1075.8,1562.8c-85.7,0-152.4-22.6-183-61.9c-20.7-26.7-25.3-63.6-13.5-109.8l0.7-2.6
		c22.8-89.6,103.4-152.2,195.9-152.2h0c92.4,0,173.1,62.7,195.9,152.2l0.7,2.6c11.8,46.2,7.2,83.1-13.5,109.8
		C1228.2,1540.3,1161.5,1562.8,1075.8,1562.8z"/>
	<path class="st14" d="M1134.3,1255.7v47h-35.9v-47c0-9.9,8-17.9,17.9-17.9c5,0,9.4,2,12.7,5.3
		C1132.3,1246.3,1134.3,1250.8,1134.3,1255.7z"/>
	<g>
		<g>
			<g>
				<path class="st15" d="M1333.8,1035.6L1333.8,1035.6c-21.2,0-38.3,17.2-38.3,38.3v95c0,21.2,17.2,38.3,38.3,38.3h0
					c21.2,0,38.3-17.2,38.3-38.3v-95C1372.1,1052.8,1355,1035.6,1333.8,1035.6z"/>
			</g>
			<g>
				<path class="st15" d="M817.7,1035.6L817.7,1035.6c-21.2,0-38.3,17.2-38.3,38.3v95c0,21.2,17.2,38.3,38.3,38.3h0
					c21.2,0,38.3-17.2,38.3-38.3v-95C856.1,1052.8,838.9,1035.6,817.7,1035.6z"/>
			</g>
		</g>
	</g>
	<g>
		<path class="st16" d="M1075,1333c-85.4,0-170-21.7-244.8-62.9c-17-9.3-23.2-30.7-13.8-47.6c9.3-17,30.7-23.2,47.6-13.8
			c132.1,72.6,289.9,72.6,422,0c17-9.3,38.3-3.1,47.6,13.8c9.3,17,3.1,38.3-13.8,47.6C1245,1311.2,1160.3,1333,1075,1333z"/>
		<g>
			<path class="st17" d="M858.3,1284.4c10.6,5,21.3,9.6,32.2,13.8l23.6-66c-10.8-4.3-21.5-9-32.1-14.2L858.3,1284.4z"/>
			<path class="st17" d="M1014,1258.8c-11.5-1.6-23-3.7-34.4-6.3l-10.4,69.3c11.4,2.4,22.9,4.5,34.5,6.1L1014,1258.8z"/>
			<path class="st17" d="M1093.3,1332.6v-69.9c-11.7,0.5-23.3,0.5-35,0.1v69.9c5.6,0.2,11.1,0.3,16.7,0.3
				C1081.1,1333,1087.2,1332.8,1093.3,1332.6z"/>
			<path class="st17" d="M1172,1252.1c-11.4,2.6-22.9,4.8-34.4,6.4l10.3,69.1c11.6-1.7,23-3.8,34.4-6.2L1172,1252.1z"/>
			<path class="st17" d="M1269.3,1217.4c-10.5,5.2-21.2,10-32,14.3l23.6,66c10.9-4.3,21.6-8.9,32.2-13.9L1269.3,1217.4z"/>
		</g>
	</g>
	<g>
		<path class="st16" d="M1216.2,1255.7v222.2h-81.9v-222.2c0-4.9-2-9.4-5.3-12.7c-3.2-3.2-7.7-5.3-12.7-5.3h81.9c5,0,9.4,2,12.7,5.3
			C1214.2,1246.3,1216.2,1250.8,1216.2,1255.7z"/>
		<g>
			<rect x="1134.3" y="1423.2" class="st17" width="81.9" height="35"/>
			<rect x="1134.3" y="1340.3" class="st17" width="81.9" height="35"/>
			<rect x="1134.3" y="1257.5" class="st17" width="81.9" height="35"/>
		</g>
		<g>
			<g>
				<rect x="1210.5" y="1463.6" class="st16" width="5.7" height="29.4"/>
				<rect x="1195.3" y="1463.6" class="st16" width="5.7" height="29.4"/>
				<rect x="1180" y="1463.6" class="st16" width="5.7" height="29.4"/>
				<rect x="1164.8" y="1463.6" class="st16" width="5.7" height="29.4"/>
				<rect x="1149.6" y="1463.6" class="st16" width="5.7" height="29.4"/>
				<rect x="1134.3" y="1463.6" class="st16" width="5.7" height="29.4"/>
			</g>
		</g>
	</g>
	<ellipse class="st18" cx="1060.6" cy="1155.7" rx="6.9" ry="13.8"/>
	<g>
		<path class="st9" d="M1219.5,1111.7h-21.8c0-15.5-12.6-28.1-28.1-28.1s-28.1,12.6-28.1,28.1h-21.8c0-27.5,22.4-49.9,49.9-49.9
			S1219.5,1084.2,1219.5,1111.7z"/>
		<path class="st9" d="M1031.9,1111.7H1010c0-15.5-12.6-28.1-28.1-28.1c-15.5,0-28.1,12.6-28.1,28.1h-21.8
			c0-27.5,22.4-49.9,49.9-49.9C1009.5,1061.8,1031.9,1084.2,1031.9,1111.7z"/>
	</g>
</g>
<g>
	
		<ellipse transform="matrix(0.7624 -0.6471 0.6471 0.7624 -403.2682 1593.7218)" class="st9" cx="1968.9" cy="1346.1" rx="44.5" ry="133.7"/>
	
		<ellipse transform="matrix(0.5191 -0.8547 0.8547 0.5191 -439.4555 1889.7534)" class="st9" cx="1459.7" cy="1335.4" rx="133.7" ry="44.5"/>
	<path class="st9" d="M1718.1,1462.2L1718.1,1462.2c-125.3,0-226.8-101.6-226.8-226.8v-100.7c0-125.3,101.6-226.8,226.8-226.8h0
		c125.3,0,226.8,101.6,226.8,226.8v100.7C1945,1360.6,1843.4,1462.2,1718.1,1462.2z"/>
	<path class="st9" d="M1718.1,1628.3L1718.1,1628.3c-177.1,0-306.7-85.7-263-257.3l52.6-206.5h420.8l52.6,206.5
		C2024.8,1542.6,1895.2,1628.3,1718.1,1628.3z"/>
	<path class="st10" d="M1718.1,1559.7c-85.7,0-152.4-22.6-183-61.9c-20.7-26.7-25.3-63.6-13.5-109.8l0.7-2.6
		c22.8-89.6,103.4-152.2,195.9-152.2h0c92.4,0,173.1,62.7,195.9,152.2l0.7,2.6c11.8,46.2,7.2,83.1-13.5,109.8
		C1870.5,1537.2,1803.8,1559.7,1718.1,1559.7z"/>
	<path class="st10" d="M1836.6,1294.5h-232.8c-35.9,0-65-29.1-65-65v0c0-35.9,29.1-65,65-65h232.8c35.9,0,65,29.1,65,65v0
		C1901.6,1265.4,1872.5,1294.5,1836.6,1294.5z"/>
	<g>
		<path class="st10" d="M1721.1,1263.3h-157.3v-179.1c0-43.4,35.2-78.6,78.6-78.6h0c43.4,0,78.6,35.2,78.6,78.6V1263.3z"/>
		<path class="st10" d="M1872.4,1263.3h-157.3v-179.1c0-43.4,35.2-78.6,78.6-78.6h0c43.4,0,78.6,35.2,78.6,78.6V1263.3z"/>
	</g>
	<path class="st11" d="M1747.3,1197.5c0,22.1-13.1,40.1-29.2,40.1s-29.2-17.9-29.2-40.1c0-22.1,13.1-32.9,29.2-32.9
		S1747.3,1175.3,1747.3,1197.5z"/>
	<linearGradient id="SVGID_9_" gradientUnits="userSpaceOnUse" x1="1813.0455" y1="1582.8851" x2="1813.0455" y2="1642.2834">
		<stop  offset="0.3325" style="stop-color:#F79B74"/>
		<stop  offset="0.5" style="stop-color:#EE946F"/>
		<stop  offset="0.7188" style="stop-color:#DC8662"/>
		<stop  offset="0.965" style="stop-color:#C3714F"/>
		<stop  offset="0.9954" style="stop-color:#C06F4C"/>
	</linearGradient>
	<path class="st19" d="M1901.6,1622.7c0,21.3-39.6,23-88.5,23s-88.5-1.7-88.5-23c0-21.3,39.6-38.6,88.5-38.6
		S1901.6,1601.4,1901.6,1622.7z"/>
	<linearGradient id="SVGID_10_" gradientUnits="userSpaceOnUse" x1="1622.4392" y1="1581.8457" x2="1622.4392" y2="1646.2875">
		<stop  offset="0.3325" style="stop-color:#F79B74"/>
		<stop  offset="0.5" style="stop-color:#EE946F"/>
		<stop  offset="0.7188" style="stop-color:#DC8662"/>
		<stop  offset="0.965" style="stop-color:#C3714F"/>
		<stop  offset="0.9954" style="stop-color:#C06F4C"/>
	</linearGradient>
	<path class="st20" d="M1711,1622.7c0,21.3-39.6,23-88.5,23s-88.5-1.7-88.5-23c0-21.3,39.6-38.6,88.5-38.6S1711,1601.4,1711,1622.7z
		"/>
	<g>
		<g>
			<g>
				<path class="st21" d="M1873.3,1096.4c-2.9-2.9-5.1-6.4-6.3-10.6l-15.9-54.1c-2.6-8.8-0.2-18.2,6.3-24.7
					c6.5-6.5,15.9-8.9,24.7-6.3l54.1,15.9c13.2,3.9,20.8,17.8,16.9,31c-3.9,13.2-17.8,20.8-31,16.9l-10.2-3l3,10.2
					c3.9,13.2-3.7,27.1-16.9,31C1888.9,1105.4,1879.5,1102.7,1873.3,1096.4z"/>
				<path class="st21" d="M1784.7,1007.8c2.9,2.9,6.4,5.1,10.6,6.3l54.1,15.9c8.8,2.6,18.2,0.2,24.7-6.3c6.5-6.5,8.9-15.9,6.3-24.7
					l-15.9-54.1c-3.9-13.2-17.8-20.8-31-16.9c-13.2,3.9-20.8,17.8-16.9,31l3,10.2l-10.2-3c-13.2-3.9-27.1,3.7-31,16.9
					C1775.7,992.2,1778.4,1001.6,1784.7,1007.8z"/>
			</g>
		</g>
		<path class="st14" d="M1882.2,1048.1l-49.2-49.2c-3.8-3.8-3.8-9.8,0-13.6h0c3.8-3.8,9.8-3.8,13.6,0l49.2,49.2
			c3.8,3.8,3.8,9.8,0,13.6l0,0C1892.1,1051.8,1886,1051.8,1882.2,1048.1z"/>
		<path class="st16" d="M1894.4,986.7c-7.4-7.4-19.3-7.4-26.7,0l-30.7,30.7c-7.4,7.4-7.4,19.3,0,26.7c7.4,7.4,19.3,7.4,26.7,0
			l30.7-30.7C1901.7,1006,1901.7,994.1,1894.4,986.7z"/>
	</g>
	<g>
		<path class="st22" d="M1777.6,1255.7v47h-35.9v-47c0-9.9,8-17.9,17.9-17.9c5,0,9.4,2,12.7,5.3
			C1775.6,1246.3,1777.6,1250.8,1777.6,1255.7z"/>
		<g>
			<path class="st15" d="M1718.1,1333c-85.4,0-170-21.7-244.8-62.9c-17-9.3-23.2-30.7-13.8-47.6c9.3-17,30.7-23.2,47.6-13.8
				c132.1,72.6,289.9,72.6,422,0c17-9.3,38.3-3.1,47.6,13.8c9.3,17,3.1,38.3-13.8,47.6C1888.1,1311.2,1803.5,1333,1718.1,1333z"/>
			<g>
				<path class="st23" d="M1501.4,1284.4c10.6,5,21.3,9.6,32.2,13.8l23.6-66c-10.8-4.3-21.5-9-32.1-14.2L1501.4,1284.4z"/>
				<path class="st23" d="M1657.1,1258.8c-11.5-1.6-23-3.7-34.4-6.3l-10.4,69.3c11.4,2.4,22.9,4.5,34.5,6.1L1657.1,1258.8z"/>
				<path class="st23" d="M1736.4,1332.6v-69.9c-11.7,0.5-23.3,0.5-35,0.1v69.9c5.6,0.2,11.1,0.3,16.7,0.3
					C1724.2,1333,1730.3,1332.8,1736.4,1332.6z"/>
				<path class="st23" d="M1815.1,1252.1c-11.4,2.6-22.9,4.8-34.4,6.4l10.3,69.1c11.6-1.7,23-3.8,34.4-6.2L1815.1,1252.1z"/>
				<path class="st23" d="M1912.4,1217.4c-10.5,5.2-21.2,10-32,14.3l23.6,66c10.9-4.3,21.6-8.9,32.2-13.9L1912.4,1217.4z"/>
			</g>
		</g>
		<g>
			<path class="st15" d="M1859.5,1255.7v222.2h-81.9v-222.2c0-4.9-2-9.4-5.3-12.7c-3.2-3.2-7.7-5.3-12.7-5.3h81.9
				c5,0,9.4,2,12.7,5.3C1857.5,1246.3,1859.5,1250.8,1859.5,1255.7z"/>
			<g>
				<rect x="1853.8" y="1463.6" class="st15" width="5.7" height="29.4"/>
				<rect x="1838.5" y="1463.6" class="st15" width="5.7" height="29.4"/>
				<rect x="1823.3" y="1463.6" class="st15" width="5.7" height="29.4"/>
				<rect x="1808.1" y="1463.6" class="st15" width="5.7" height="29.4"/>
				<rect x="1792.9" y="1463.6" class="st15" width="5.7" height="29.4"/>
				<rect x="1777.6" y="1463.6" class="st15" width="5.7" height="29.4"/>
			</g>
			<g>
				<rect x="1777.6" y="1423.2" class="st23" width="81.9" height="35"/>
				<rect x="1777.6" y="1340.3" class="st23" width="81.9" height="35"/>
				<rect x="1777.6" y="1257.5" class="st23" width="81.9" height="35"/>
			</g>
		</g>
	</g>
	<ellipse class="st18" cx="1701.4" cy="1190.5" rx="6.9" ry="13.8"/>
	<g>
		<path class="st9" d="M1861.8,1152.2H1840c0-15.5-12.6-28.1-28.1-28.1c-15.5,0-28.1,12.6-28.1,28.1H1762
			c0-27.5,22.4-49.9,49.9-49.9C1839.4,1102.3,1861.8,1124.7,1861.8,1152.2z"/>
		<path class="st9" d="M1674.2,1152.2h-21.8c0-15.5-12.6-28.1-28.1-28.1c-15.5,0-28.1,12.6-28.1,28.1h-21.8
			c0-27.5,22.4-49.9,49.9-49.9C1651.9,1102.3,1674.2,1124.7,1674.2,1152.2z"/>
	</g>
</g>
<path class="st24" d="M2495.9,1637.9H304.1c-9.4,0-17,7.6-17,17c0,9.4,7.6,17,17,17h2191.9c9.4,0,17-7.6,17-17
	C2512.9,1645.5,2505.3,1637.9,2495.9,1637.9z"/>
<g>
	<path class="st10" d="M2034.6,1482.8c-2.6,0-4.7-2.1-4.7-4.7V775c0-2.6,2.1-4.7,4.7-4.7s4.7,2.1,4.7,4.7v703.1
		C2039.3,1480.7,2037.2,1482.8,2034.6,1482.8z"/>
	<g>
		<linearGradient id="SVGID_11_" gradientUnits="userSpaceOnUse" x1="1912.8357" y1="437.0662" x2="2151.3799" y2="675.6104">
			<stop  offset="7.233568e-003" style="stop-color:#F15F56"/>
			<stop  offset="0.404" style="stop-color:#ED5C53"/>
			<stop  offset="0.811" style="stop-color:#E5514B"/>
			<stop  offset="0.9951" style="stop-color:#E04A46"/>
		</linearGradient>
		<path class="st25" d="M2051.4,759c-9.4,9.1-24.3,9.1-33.6,0l-135.1-131.6c-37.8-36.9-38.6-97.4-1.8-135.3
			c36.9-37.8,97.4-38.6,135.3-1.8l18.4,18l17.4-17c37.7-36.7,98.2-37.3,135.4-0.1c37.8,37.8,37.3,99-0.9,136.2L2051.4,759z"/>
		<path class="st26" d="M1963.7,492.6c-0.4,0-0.8,0-1.2-0.1c-7.7-1.5-15.8-1.6-23.5-0.5c-3.4,0.5-6.6-1.8-7.1-5.2
			c-0.5-3.4,1.8-6.6,5.2-7.1c9.1-1.4,18.7-1.2,27.8,0.5c3.4,0.7,5.6,3.9,4.9,7.3C1969.2,490.6,1966.6,492.6,1963.7,492.6z"/>
		<path class="st26" d="M1876.7,578c-3,0-5.6-2.1-6.1-5.2c-4.5-25.4,3.6-51.5,21.5-69.8c4.2-4.3,8.9-8.2,13.9-11.5
			c2.9-1.9,6.8-1,8.6,1.8c1.9,2.9,1,6.8-1.8,8.6c-4.2,2.7-8.2,6-11.8,9.7c-15.1,15.5-21.9,37.6-18.1,59c0.6,3.4-1.7,6.6-5.1,7.2
			C1877.5,577.9,1877.1,578,1876.7,578z"/>
		<path class="st16" d="M2042.5,793.3h-15.8c-7.1,0-12.1-7-9.8-13.7l5.5-15.9c1.4-4.2,5.4-7,9.8-7h4.8c4.4,0,8.3,2.8,9.8,7l5.5,15.9
			C2054.6,786.3,2049.6,793.3,2042.5,793.3z"/>
	</g>
	<path class="st10" d="M2049.2,766.4H2020c-2.6,0-4.7-2.1-4.7-4.7c0-2.6,2.1-4.7,4.7-4.7h29.2c2.6,0,4.7,2.1,4.7,4.7
		C2053.9,764.3,2051.8,766.4,2049.2,766.4z"/>
</g>
<path class="st0" d="M1763.4,766.7h-19.7c1-4.8,1.5-9.7,1.5-14.7c0-39.8-32.3-72.1-72.1-72.1c-26.3,0-49.4,14.1-62,35.2
	c-4.4,7.4-7.5,15.6-9,24.3c-0.1,0-0.1,0-0.2-0.1c-6.5-2.4-13.5-3.7-20.8-3.7c-3.7,0-7.4,0.3-11,1c-1.1,0.2-2.3,0.5-3.4,0.7
	c-0.5-9.3-2.3-18.2-5.3-26.5c-13-36.6-47.9-62.9-89-62.9c-48,0-87.7,35.8-93.7,82.2c-2.2-0.4-4.4-0.6-6.6-0.6
	c-20.5,0-37.1,16.6-37.1,37.1h-21c-7.4,0-13.3,6-13.3,13.3c0,7.4,6,13.3,13.3,13.3h449.2c7.4,0,13.3-6,13.3-13.3
	C1776.8,772.6,1770.8,766.7,1763.4,766.7z"/>
<path class="st0" d="M2313.4,1057.5h-184.1c-3.4,0-6.6-1.4-8.8-3.6c-2.3-2.3-3.6-5.4-3.6-8.8c0-6.9,5.6-12.5,12.5-12.5h42.1
	c-1.3-5-2-10.2-2-15.6c0-35,28.4-63.4,63.4-63.4c0.7,0,1.4,0,2.1,0c2.8,10.5,6.6,20.8,11.5,30.8
	C2261.9,1015.4,2285.6,1038.3,2313.4,1057.5z"/>
</svg>
